<?xml version="1.0" encoding="utf-8"?>
<svg width="323" height="114" viewBox="0 0 323 114" fill="none" xmlns="http://www.w3.org/2000/svg">
<path fill-rule="evenodd" clip-rule="evenodd" d="M160.897 85.2178C165.382 85.2178 169.562 84.6665 173.438 83.5638C177.315 82.461 180.691 80.7309 183.566 78.3734C186.442 76.0159 188.703 73.0056 190.35 69.3426C191.996 65.6795 192.82 61.2877 192.82 56.1671C192.82 51.0211 192.003 46.6356 190.369 43.0106C188.735 39.3856 186.486 36.4323 183.623 34.1508C180.76 31.8694 177.384 30.2026 173.495 29.1506C169.606 28.0986 165.407 27.5726 160.897 27.5726H129.545V85.2178H160.897ZM161.049 76.0919H139.958V36.9266H160.897C164.495 36.9266 167.637 37.3829 170.322 38.2955C173.008 39.2081 175.237 40.5073 177.011 42.193C178.784 43.8788 180.108 45.9131 180.982 48.296C181.856 50.6789 182.293 53.3532 182.293 56.3192C182.293 59.3865 181.856 62.1369 180.982 64.5705C180.108 67.0041 178.784 69.0764 177.011 70.7875C175.237 72.4986 173.027 73.8105 170.379 74.723C167.732 75.6356 164.622 76.0919 161.049 76.0919ZM225.525 86.3966C230.009 86.3966 234.069 86.01 237.705 85.2368C241.341 84.4637 244.432 83.3356 246.978 81.8526C249.524 80.3697 251.487 78.5635 252.868 76.4342C254.249 74.3048 254.939 71.8839 254.939 69.1715C254.939 67.3209 254.616 65.6098 253.97 64.0381C253.324 62.4665 252.393 61.0659 251.177 59.8364C249.961 58.607 248.485 57.555 246.75 56.6804C245.014 55.8058 243.07 55.115 240.916 54.6081C242.816 54.1264 244.527 53.4927 246.047 52.7068C247.567 51.921 248.859 50.9767 249.923 49.874C250.987 48.7713 251.804 47.5101 252.374 46.0906C252.944 44.671 253.229 43.0866 253.229 41.3375C253.229 38.9039 252.602 36.7619 251.348 34.9113C250.094 33.0608 248.314 31.5145 246.009 30.2723C243.703 29.0302 240.91 28.0923 237.629 27.4585C234.348 26.8248 230.681 26.5079 226.627 26.5079C222.599 26.5079 219.008 26.7994 215.853 27.3825C212.699 27.9655 209.95 28.7133 207.607 29.6259C205.263 30.5385 203.325 31.5652 201.792 32.7059C200.26 33.8466 199.113 34.9747 198.353 36.0901L206.296 41.3755C207.005 40.615 207.86 39.8735 208.861 39.1511C209.862 38.4286 211.103 37.7885 212.585 37.2308C214.067 36.6731 215.853 36.2232 217.944 35.881C220.034 35.5387 222.536 35.3676 225.449 35.3676C231.175 35.3676 235.514 36.0204 238.465 37.3259C241.417 38.6314 242.892 40.539 242.892 43.0486C242.892 44.3161 242.588 45.4378 241.98 46.4138C241.372 47.3897 240.315 48.2009 238.807 48.8473C237.3 49.4938 235.273 49.9817 232.727 50.3113C230.18 50.6408 226.969 50.8056 223.093 50.8056H210.894V59.133H222.941C226.513 59.133 229.623 59.2851 232.271 59.5893C234.918 59.8935 237.116 60.4131 238.864 61.1483C240.612 61.8834 241.917 62.8594 242.778 64.0762C243.64 65.293 244.071 66.8139 244.071 68.6391C244.071 70.1094 243.64 71.4086 242.778 72.5366C241.917 73.6647 240.676 74.6153 239.054 75.3885C237.433 76.1616 235.438 76.7447 233.069 77.1376C230.7 77.5305 228.021 77.727 225.031 77.727C222.042 77.727 219.445 77.5369 217.24 77.1566C215.036 76.7764 213.117 76.2504 211.483 75.5786C209.849 74.9068 208.455 74.1083 207.303 73.1831C206.15 72.2578 205.143 71.2375 204.282 70.1221L195.883 74.609C196.744 76.1553 197.948 77.6383 199.493 79.0578C201.039 80.4774 203.008 81.7322 205.403 82.8223C207.797 83.9123 210.653 84.7805 213.972 85.427C217.291 86.0734 221.142 86.3966 225.525 86.3966ZM292.091 86.3586C297.842 86.3586 302.668 85.8959 306.57 84.9707C310.472 84.0454 313.613 82.7842 315.995 81.1872C318.376 79.5902 320.08 77.727 321.106 75.5976C322.132 73.4682 322.645 71.2121 322.645 68.8292C322.645 66.4464 322.227 64.393 321.391 62.6693C320.555 60.9455 319.409 59.4815 317.952 58.2774C316.495 57.0733 314.785 56.0783 312.822 55.2925C310.858 54.5067 308.743 53.8602 306.475 53.3532C304.208 52.8462 301.851 52.428 299.407 52.0984C296.962 51.7689 294.536 51.4647 292.129 51.1858C288.987 50.8056 286.194 50.4444 283.749 50.1021C281.304 49.7599 279.24 49.3036 277.555 48.7333C275.87 48.1629 274.584 47.4024 273.698 46.4518C272.811 45.5012 272.367 44.24 272.367 42.6683C272.367 40.2855 273.875 38.4603 276.89 37.1928C279.905 35.9253 284.566 35.2916 290.875 35.2916C293.94 35.2916 296.645 35.4944 298.989 35.9C301.332 36.3056 303.353 36.8823 305.05 37.6301C306.747 38.3779 308.141 39.2588 309.23 40.2728C310.32 41.2868 311.13 42.4022 311.662 43.619L321.353 40.1587C320.669 38.5617 319.637 36.952 318.256 35.3296C316.875 33.7072 314.994 32.2433 312.613 30.9378C310.231 29.6323 307.267 28.5612 303.72 27.7247C300.173 26.8882 295.904 26.4699 290.913 26.4699C286.201 26.4699 282.052 26.8501 278.467 27.6106C274.882 28.3711 271.88 29.4802 269.46 30.9378C267.041 32.3954 265.217 34.1825 263.988 36.2992C262.759 38.4159 262.145 40.8178 262.145 43.5049C262.145 45.7864 262.537 47.77 263.323 49.4557C264.108 51.1415 265.191 52.5801 266.572 53.7715C267.953 54.9629 269.581 55.9579 271.455 56.7564C273.33 57.555 275.344 58.214 277.498 58.7337C279.651 59.2534 281.894 59.6717 284.224 59.9885C286.555 60.3054 288.873 60.5906 291.179 60.8441C294.472 61.2243 297.43 61.5856 300.053 61.9278C302.675 62.27 304.898 62.7453 306.722 63.3537C308.546 63.9621 309.946 64.767 310.921 65.7683C311.897 66.7696 312.385 68.1194 312.385 69.8179C312.385 71.1614 311.986 72.3402 311.187 73.3542C310.389 74.3681 309.154 75.2174 307.482 75.9018C305.81 76.5862 303.682 77.1059 301.098 77.4608C298.513 77.8157 295.435 77.9932 291.863 77.9932C288.367 77.9932 285.288 77.727 282.628 77.1946C279.968 76.6623 277.688 75.9272 275.788 74.9892C273.888 74.0513 272.355 72.9359 271.189 71.6431C270.024 70.3502 269.188 68.9306 268.681 67.3843L258.914 69.7038C259.599 71.9599 260.694 74.0956 262.202 76.1109C263.709 78.1262 265.774 79.8944 268.396 81.4154C271.018 82.9363 274.268 84.1405 278.144 85.0277C282.02 85.9149 286.669 86.3586 292.091 86.3586Z" fill="#06384E"/>
<path fill-rule="evenodd" clip-rule="evenodd" d="M65.2876 0.0203857L65.1639 76.5553C65.1551 81.9577 63.0052 87.1364 59.1851 90.9565L36.1619 113.98L36.2857 37.4447C36.2944 32.0423 38.4444 26.8636 42.2645 23.0435L65.2876 0.0203857ZM101.441 13.7625L101.361 63.2095C101.353 68.6119 99.2026 73.7906 95.3825 77.6107L72.3594 100.634L72.4393 51.1868C72.4481 45.7844 74.598 40.6057 78.4181 36.7856L101.441 13.7625ZM29.0901 13.5643L29.0102 63.0114C29.0014 68.4138 26.8515 73.5924 23.0314 77.4125L0.00823975 100.436L0.0881724 50.9886C0.0969055 45.5862 2.24688 40.4076 6.06697 36.5875L29.0901 13.5643Z" fill="#6E9CB5"/>
</svg>
